<svg viewBox="-1.7460988 -2.1000004 38.41416 46.199997" xmlns="http://www.w3.org/2000/svg">
<g id="container_0">
<path d="M0,0 L34.921967,0 L34.921967,42 L0,42 z" fill="#D3D3D3" stroke="black" stroke-width="0.19207081"/>
<title>container, id: 0, bbox: [x_min: 0.000, y_min: 0.000, x_max: 34.922, y_max: 42.000]</title>
</g>
<g id="items">
<defs>
<g id="item_0">
<path d="M1.2245704,9.321461 L0.9260467,9.321461 L0.9430748,8.661283 L0.9392522,8.397321 L0.91901225,8.070005 L0.90720737,7.9612765 L0.8545961,7.6469254 L0.83023864,7.5435457 L0.73612595,7.240715 L0.6984893,7.1418633 L0.566898,6.8431396 L0.51901495,6.745436 L0.26800576,6.2797065 L0,5.823012 L2.2407808,0 L3.3290946,0.3420048 L3.7407389,0.45755795 L4.41664,0.6216891 L5.2354846,0.78528315 L5.372499,0.80967224 L5.940787,0.9018578 L6.490362,0.9674323 L6.9274273,0.9872932 L7.036841,0.9863559 L7.3556786,0.9674744 L7.566871,0.9395365 L7.8739457,0.8722034 L8.073334,0.8081137 L8.341539,0.68939084 L8.512494,0.5872959 L8.592917,0.528798 L8.62751,0.50095487 L8.774613,0.36507753 L9.041039,0.06331044 L18.239513,0.3761874 L18.239513,9.321461 z" fill="#7A7A7A" fill-opacity="0.5" fill-rule="nonzero" stroke="black" stroke-width="0.096035406"/>
</g>
<g id="cd_shape_0">
<path d="M0.9260464,9.321461 L0.9072075,7.9612765 L0.83023834,7.5435457 L0.5190153,6.745436 L0,5.823012 L2.2407808,0 L3.329095,0.34200478 L5.2354846,0.7852831 L6.490362,0.96743226 L7.3556786,0.96747446 L8.341539,0.68939066 L9.041039,0.06331062 L18.239513,0.37618732 L18.239513,9.321461 z" fill="none" stroke="black" stroke-dasharray="0.096035406 0.19207081" stroke-linecap="round" stroke-linejoin="round" stroke-opacity="0.3" stroke-width="0.048017703"/>
</g>
<g id="item_1">
<path d="M17.970854,0 L18.269379,0 L18.269379,8.945242 L9.071652,9.258077 L8.803489,8.957005 L8.655564,8.821423 L8.620603,8.793569 L8.454818,8.681681 L8.367287,8.63306 L8.097112,8.514548 L7.796735,8.425163 L7.591597,8.384273 L7.275182,8.347331 L7.0629992,8.337548 L6.7359376,8.341824 L6.5182896,8.355808 L5.970484,8.420393 L5.3746367,8.5166855 L4.5306664,8.680901 L3.8339565,8.846928 L3.120166,9.051085 L2.2704773,9.321009 L0,3.4207854 L0.6254275,2.9743478 L1.0241927,2.6546364 L1.120085,2.5700645 L1.311975,2.386515 L1.4890695,2.1885803 L1.6351826,1.9868441 L1.755506,1.7692381 L1.830495,1.5821606 L1.8868448,1.3884488 L1.9463747,1.0678424 L1.959538,0.9599029 L1.9870546,0.60086995 L2.0004601,0 z" fill="#7A7A7A" fill-opacity="0.5" fill-rule="nonzero" stroke="black" stroke-width="0.096035406"/>
</g>
<g id="cd_shape_1">
<path d="M18.269379,0 L18.269379,8.945242 L9.071652,9.258077 L8.620603,8.793569 L8.097112,8.514548 L7.591597,8.384273 L6.5182896,8.355808 L5.3746367,8.5166855 L3.8339567,8.846928 L2.2704773,9.321009 L0,3.4207854 L0.62542725,2.9743478 L1.3119755,2.386515 L1.6351824,1.9868441 L1.8868446,1.3884487 L2.0004601,0 z" fill="none" stroke="black" stroke-dasharray="0.096035406 0.19207081" stroke-linecap="round" stroke-linejoin="round" stroke-opacity="0.3" stroke-width="0.048017703"/>
</g>
<g id="item_2">
<path d="M9.773543,0 L9.773543,12.577662 L8.705627,12.456686 L8.17428,12.377916 L7.648895,12.276222 L7.5186615,12.245536 L7.1301427,12.137554 L6.875058,12.0528555 L6.4805684,11.899139 L6.0961566,11.71995 L5.97041,11.654344 L5.4802384,11.387201 L5.227744,11.273512 L5.0971007,11.228135 L4.9726596,11.193626 L4.4855,11.083507 L4.1163473,11.021144 L3.6198468,10.964173 L3.2459235,10.937267 L2.4522157,10.910572 L1.2603537,10.914026 L0.75648177,9.438162 L0.62752306,9.032689 L0.42152196,8.330598 L0.24442756,7.6209674 L0.18421315,7.334701 L0.08663589,6.7636647 L0.050273456,6.476293 L0.013868903,6.049632 L0,5.621581 L0.011194111,5.1940145 L0.05109485,4.768428 L0.12304044,4.342262 L0.22172342,3.9209926 L0.32921004,3.549091 L0.4606013,3.1852877 L0.6248483,2.8289297 L0.82156134,2.489273 L0.9786159,2.2629478 L1.2408929,1.9437419 L1.3347634,1.8429108 L1.633782,1.5573082 L1.9552099,1.2971689 L2.2942977,1.062577 L2.6490026,0.85237414 L3.010089,0.66931933 L3.3817902,0.50917935 L3.736137,0.38058922 L4.1213703,0.26553103 L4.642881,0.13928927 L4.9054527,0.083792605 L5.326185,0 z" fill="#7A7A7A" fill-opacity="0.5" fill-rule="nonzero" stroke="black" stroke-width="0.096035406"/>
</g>
<g id="cd_shape_2">
<path d="M9.773543,0 L9.773543,12.577662 L8.40569,12.4227085 L7.250291,12.199068 L6.26659,11.815762 L5.4802384,11.387201 L4.9726596,11.193626 L4.1163473,11.021144 L3.2459235,10.937267 L2.4522157,10.910572 L1.2603536,10.914026 L0.5388217,8.800626 L0.09781504,7.033479 L-0.02562666,5.5867476 L0.069702625,4.5699577 L0.2712469,3.709582 L0.53041506,2.9919837 L0.8905978,2.370071 L1.4087949,1.7393956 L2.110454,1.171526 L2.8189077,0.7516856 L3.5539846,0.4349923 L4.3784375,0.18875265 L5.326185,0 z" fill="none" stroke="black" stroke-dasharray="0.096035406 0.19207081" stroke-linecap="round" stroke-linejoin="round" stroke-opacity="0.3" stroke-width="0.048017703"/>
</g>
<g id="item_3">
<path d="M5.6890407,7.014916 L0.9962653,7.014916 L0,4.026099 L1.4493687,0 L9.928671,0 L11.378071,4.026099 L10.381774,7.014916 z" fill="#7A7A7A" fill-opacity="0.5" fill-rule="nonzero" stroke="black" stroke-width="0.096035406"/>
</g>
<g id="cd_shape_3">
<path d="M0.9962654,7.014916 L0,4.026099 L1.4493685,0 L9.928671,0 L11.378071,4.026099 L10.381774,7.014916 z" fill="none" stroke="black" stroke-dasharray="0.096035406 0.19207081" stroke-linecap="round" stroke-linejoin="round" stroke-opacity="0.3" stroke-width="0.048017703"/>
</g>
<g id="item_4">
<path d="M0,3.8142536 L2.7023613,3.2622566 L4.4030657,2.8866062 L4.685783,2.820621 L6.056214,2.4818702 L6.8741946,2.2615473 L7.9554424,1.9445634 L9.026896,1.5961454 L10.112957,1.2048991 L10.9211445,0.89412826 L12.871911,0.1065494 L13.131387,0 L13.18445,0.77799594 L13.195687,0.8888629 L13.250762,1.2792772 L13.29198,1.472115 L13.3324175,1.6099616 L13.373476,1.7090553 L13.791207,2.651477 L13.980349,3.1442392 L14.102388,3.5481434 L14.127894,3.6505332 L14.146986,3.7327988 L14.333326,4.417619 L14.418351,4.833876 L14.434105,4.9340014 L14.5248165,5.5490565 L14.578249,6.0978417 L14.612716,6.787064 L14.627364,7.3397665 L14.595362,8.306325 L14.555208,8.856468 L14.5248165,9.130477 L14.434105,9.745531 L14.418351,9.845657 L14.333326,10.261903 L14.146986,10.946724 L14.127894,11.029 L14.013668,11.435168 L13.980349,11.535294 L13.791207,12.028056 L13.373476,12.97051 L13.3324175,13.069561 L13.29198,13.207408 L13.234103,13.49737 L13.195687,13.79067 L13.143813,14.457062 L13.131387,14.6795225 L11.0516615,13.836784 L10.9211445,13.785405 L9.706989,13.324277 L9.026896,13.083387 L7.9554424,12.73497 L6.8741946,12.417975 L5.645928,12.092598 L4.685783,11.858902 L2.986279,11.477828 L0.42702952,10.950926 L0,10.865279 z" fill="#7A7A7A" fill-opacity="0.5" fill-rule="nonzero" stroke="black" stroke-width="0.096035406"/>
</g>
<g id="cd_shape_4">
<path d="M0,3.8142536 L2.7023616,3.2622566 L4.4030657,2.8866062 L6.056214,2.4818702 L7.9554424,1.9445634 L9.026896,1.5961456 L10.9211445,0.8941283 L13.131387,0 L13.250762,1.2792773 L13.373476,1.7090554 L13.977025,3.0706902 L14.388969,4.6279674 L14.564138,5.81567 L14.63254,7.183468 L14.580597,8.752269 L14.388128,10.05727 L13.965881,11.633971 L13.373476,12.97051 L13.195687,13.79067 L13.131387,14.6795225 L11.0516615,13.836784 L9.706989,13.324277 L7.9554424,12.73497 L6.8741946,12.417975 L4.685783,11.858902 L2.986279,11.477828 L0,10.865279 z" fill="none" stroke="black" stroke-dasharray="0.096035406 0.19207081" stroke-linecap="round" stroke-linejoin="round" stroke-opacity="0.3" stroke-width="0.048017703"/>
</g>
<g id="item_5">
<path d="M2.3880417,0 L4.776115,0 L4.776115,5.970157 L0,5.970157 L0,0 z" fill="#7A7A7A" fill-opacity="0.5" fill-rule="nonzero" stroke="black" stroke-width="0.096035406"/>
</g>
<g id="cd_shape_5">
<path d="M4.776115,0 L4.776115,5.970157 L0,5.970157 L0,0 z" fill="none" stroke="black" stroke-dasharray="0.096035406 0.19207081" stroke-linecap="round" stroke-linejoin="round" stroke-opacity="0.3" stroke-width="0.048017703"/>
</g>
<g id="item_6">
<path d="M0,0 L40,0 L40,4.4775915 L0,4.4775915 z" fill="#7A7A7A" fill-opacity="0.5" fill-rule="nonzero" stroke="black" stroke-width="0.096035406"/>
</g>
<g id="cd_shape_6">
<path d="M0,0 L40,0 L40,4.4775915 L0,4.4775915 z" fill="none" stroke="black" stroke-dasharray="0.096035406 0.19207081" stroke-linecap="round" stroke-linejoin="round" stroke-opacity="0.3" stroke-width="0.048017703"/>
</g>
</defs>
<use href="#item_6" transform="translate(4.4790287 0.0033798218), rotate(90)">
<title>item, id: 6, transf: [r: 90.000°, t: (4.479, 0.003)]</title>
</use>
<use href="#item_0" transform="translate(14.120176 0.102458), rotate(91)">
<title>item, id: 0, transf: [r: 91.000°, t: (14.120, 0.102)]</title>
</use>
<use href="#item_1" transform="translate(4.4130464 36.445084), rotate(-88.000015)">
<title>item, id: 1, transf: [r: -88.000°, t: (4.413, 36.445)]</title>
</use>
<use href="#item_4" transform="translate(13.451452 1.5480118), rotate(-3.999993)">
<title>item, id: 4, transf: [r: -4.000°, t: (13.451, 1.548)]</title>
</use>
<use href="#item_4" transform="translate(10.820853 27.378077), rotate(-76.999985)">
<title>item, id: 4, transf: [r: -77.000°, t: (10.821, 27.378)]</title>
</use>
<use href="#item_2" transform="translate(23.725653 41.901196), rotate(-178)">
<title>item, id: 2, transf: [r: -178.000°, t: (23.726, 41.901)]</title>
</use>
<use href="#item_2" transform="translate(29.894375 34.72084), rotate(-149)">
<title>item, id: 2, transf: [r: -149.000°, t: (29.894, 34.721)]</title>
</use>
<use href="#item_3" transform="translate(23.769674 34.44678), rotate(3.0000043)">
<title>item, id: 3, transf: [r: 3.000°, t: (23.770, 34.447)]</title>
</use>
<use href="#item_5" transform="translate(29.569876 4.028432), rotate(8.000012)">
<title>item, id: 5, transf: [r: 8.000°, t: (29.570, 4.028)]</title>
</use>
<use href="#item_5" transform="translate(27.849928 13.423851), rotate(-28.99999)">
<title>item, id: 5, transf: [r: -29.000°, t: (27.850, 13.424)]</title>
</use>
</g>
<g id="quality_zones"/>
<g id="optionals">
<g id="highlight_cd_shapes">
<use href="#cd_shape_6" transform="translate(4.4790287 0.0033798218), rotate(90)"/>
<use href="#cd_shape_0" transform="translate(14.120176 0.102458), rotate(91)"/>
<use href="#cd_shape_1" transform="translate(4.4130464 36.445084), rotate(-88.000015)"/>
<use href="#cd_shape_4" transform="translate(13.451452 1.5480118), rotate(-3.999993)"/>
<use href="#cd_shape_4" transform="translate(10.820853 27.378077), rotate(-76.999985)"/>
<use href="#cd_shape_2" transform="translate(23.725653 41.901196), rotate(-178)"/>
<use href="#cd_shape_2" transform="translate(29.894375 34.72084), rotate(-149)"/>
<use href="#cd_shape_3" transform="translate(23.769674 34.44678), rotate(3.0000043)"/>
<use href="#cd_shape_5" transform="translate(29.569876 4.028432), rotate(8.000012)"/>
<use href="#cd_shape_5" transform="translate(27.849928 13.423851), rotate(-28.99999)"/>
<path d="M0,0 L34.921967,0 L34.921967,42 L0,42 z" fill="none" stroke="black" stroke-dasharray="0.096035406 0.19207081" stroke-linecap="round" stroke-linejoin="round" stroke-opacity="0.3" stroke-width="0.048017703"/>
</g>
<g id="surrogates">
<defs/>
</g>
<g id="collision_lines"/>
</g>
<text font-family="monospace" font-size="0.8730492" font-weight="500" x="0" y="-0.4365246">
h: 42.000 | w: 34.922 | d: 76.127% | 45_34.922_expl_f
</text>
</svg>