<?xml version="1.0" encoding="UTF-8" standalone="no"?>
<!-- Created with Inkscape (http://www.inkscape.org/) -->

<svg
   width="30.668381mm"
   height="89.691635mm"
   viewBox="0 0 30.66838 89.691634"
   version="1.1"
   id="svg1"
   xml:space="preserve"
   xmlns="http://www.w3.org/2000/svg"
   xmlns:svg="http://www.w3.org/2000/svg"><defs
     id="defs1" /><g
     id="layer-MC1"
     transform="matrix(0.26458333,0,0,0.26458334,-38.189893,-141.74008)"><path
       id="path998"
       d="m 0,0 h 2.87 14.45 l 10.96,0.224 3.015,0.223 1.447,0.278 1.355,0.467 1.22,0.716 0.898,0.827 0.751,0.979 0.929,1.807 0.385,0.943 0.653,1.92 38.648,-12.019 -0.551,-1.865 -0.028,-0.093 -3.836,-13.339 -1.915,-7.47 -1.612,-7.503 -0.98,-6.057 -0.191,-1.522 -0.415,-4.489 -0.143,-3.001 0.033,-4.796 0.245,-3.188 0.461,-3.17 0.71,-3.145 0.992,-3.11 0.611,-1.54 1.5,-3.074 0.882,-1.466 0.972,-1.394 1.062,-1.299 1.154,-1.184 1.248,-1.05 1.343,-0.893 1.439,-0.717 1.488,-0.521 3.116,-0.673 1.518,-0.24 -2.468,-28.275 -1.264,-18.306 -0.679,-14.988 -0.244,-13.335 -0.002,-4.158 -0.038,-86.114 -81.891,0.147 z"
       style="fill:none;stroke:#000000;stroke-width:0.25;stroke-linecap:round;stroke-linejoin:round;stroke-miterlimit:10;stroke-dasharray:none;stroke-opacity:1"
       transform="matrix(1.3333333,0,0,-1.3333333,144.50648,547.05581)" /></g></svg>
