<?xml version="1.0" encoding="UTF-8" standalone="no"?>
<!-- Created with Inkscape (http://www.inkscape.org/) -->

<svg
   width="30.66415mm"
   height="88.233955mm"
   viewBox="0 0 30.66415 88.233954"
   version="1.1"
   id="svg1"
   xml:space="preserve"
   xmlns="http://www.w3.org/2000/svg"
   xmlns:svg="http://www.w3.org/2000/svg"><defs
     id="defs1" /><g
     id="layer-MC1"
     transform="matrix(0.26458333,0,0,0.26458334,-119.27534,-142.3084)"><path
       id="path992"
       d="m 0,0 -39.557,-0.007 -42.334,-0.143 -0.038,86.114 -0.002,4.158 -0.244,13.334 -0.679,14.989 -1.264,18.305 -2.468,28.275 0.731,0.152 3.033,0.882 1.462,0.569 1.246,0.623 1.194,0.728 2.229,1.713 2.161,2.133 1.899,2.373 1.63,2.569 1.351,2.724 0.568,1.406 0.902,2.8 0.654,2.863 0.58,4.364 0.187,4.355 -0.108,4.36 -0.368,4.798 -0.612,4.773 -0.855,4.733 -0.705,3.124 -1.659,5.984 -2.47,7.367 -2.697,7.304 38.656,11.99 1.157,-3.667 2.402,-7.855 1.699,-4.624 1.351,-2.915 1.59,-2.706 0.9,-1.255 0.981,-1.18 1.066,-1.095 1.16,-1.008 1.246,-0.92 1.323,-0.834 2.847,-1.427 3.059,-1.127 3.209,-0.854 3.294,-0.609 4.959,-0.514 1.626,-0.08 3.794,-0.06 z"
       style="fill:none;stroke:#000000;stroke-width:0.25;stroke-linecap:round;stroke-linejoin:round;stroke-miterlimit:10;stroke-dasharray:none;stroke-opacity:1"
       transform="matrix(1.3333333,0,0,-1.3333333,566.41928,870.97448)" /></g></svg>
