<?xml version="1.0" encoding="UTF-8" standalone="no"?>
<!-- Created with Inkscape (http://www.inkscape.org/) -->

<svg
   width="46.448814mm"
   height="28.594404mm"
   viewBox="0 0 46.448813 28.594404"
   version="1.1"
   id="svg1"
   xml:space="preserve"
   xmlns="http://www.w3.org/2000/svg"
   xmlns:svg="http://www.w3.org/2000/svg"><defs
     id="defs1" /><g
     id="layer-MC1"
     transform="matrix(0.26458333,0,0,0.26458334,-71.280777,-123.10702)"><path
       id="path1008"
       d="m 0,0 h 113.461 l 8.978,-33.036 -1.912,-0.537 -3.03,-1.106 -2.912,-1.405 -2.792,-1.669 -2.675,-1.895 -3.794,-3.189 -3.536,-3.495 -2.215,-2.438 -3.826,-4.621 -2.731,-3.524 -4.558,-5.937 -4.218,-5.116 -3.43,-3.616 -2.437,-2.203 -2.571,-1.973 -2.718,-1.69 -2.877,-1.35 -2.972,-0.957 -3.094,-0.625 -3.179,-0.335 -3.222,-0.088 -1.615,0.036 -3.25,0.222 -3.191,0.463 -3.088,0.761 -1.492,0.508 -1.498,0.622 -2.871,1.518 -2.717,1.835 -2.58,2.098 -3.648,3.511 -3.427,3.78 -2.19,2.575 -7.536,9.082 -3.969,4.616 -4.514,4.831 -3.635,3.364 -2.572,2.034 -2.709,1.815 -2.861,1.551 -2.405,1.025 -1.232,0.439 -3.717,1.083 z"
       style="fill:none;stroke:#000000;stroke-width:0.25;stroke-linecap:round;stroke-linejoin:round;stroke-miterlimit:10;stroke-dasharray:none;stroke-opacity:1"
       transform="matrix(1.3333333,0,0,-1.3333333,281.54368,465.45301)" /><path
       id="path1017"
       d="M 0,0 -1.892,1.446"
       style="fill:none;stroke:#000000;stroke-width:0.25;stroke-linecap:round;stroke-linejoin:round;stroke-miterlimit:10;stroke-dasharray:none;stroke-opacity:1"
       transform="matrix(1.3333333,0,0,-1.3333333,405.56448,541.33901)" /><path
       id="path1018"
       d="M 0,0 -1.033,-1.352"
       style="fill:none;stroke:#000000;stroke-width:0.25;stroke-linecap:round;stroke-linejoin:round;stroke-miterlimit:10;stroke-dasharray:none;stroke-opacity:1"
       transform="matrix(1.3333333,0,0,-1.3333333,403.73048,538.51021)" /><path
       id="path1019"
       d="M 0,0 -1.874,1.469"
       style="fill:none;stroke:#000000;stroke-width:0.25;stroke-linecap:round;stroke-linejoin:round;stroke-miterlimit:10;stroke-dasharray:none;stroke-opacity:1"
       transform="matrix(1.3333333,0,0,-1.3333333,399.48768,549.25568)" /><path
       id="path1020"
       d="M 0,0 -1.049,-1.338"
       style="fill:none;stroke:#000000;stroke-width:0.25;stroke-linecap:round;stroke-linejoin:round;stroke-miterlimit:10;stroke-dasharray:none;stroke-opacity:1"
       transform="matrix(1.3333333,0,0,-1.3333333,397.68875,546.40475)" /><path
       id="path1021"
       d="M 0,0 0.087,2.379"
       style="fill:none;stroke:#000000;stroke-width:0.25;stroke-linecap:round;stroke-linejoin:round;stroke-miterlimit:10;stroke-dasharray:none;stroke-opacity:1"
       transform="matrix(1.3333333,0,0,-1.3333333,356.37701,573.14501)" /><path
       id="path1022"
       d="M 0,0 -1.699,0.062"
       style="fill:none;stroke:#000000;stroke-width:0.25;stroke-linecap:round;stroke-linejoin:round;stroke-miterlimit:10;stroke-dasharray:none;stroke-opacity:1"
       transform="matrix(1.3333333,0,0,-1.3333333,357.62568,570.01421)" /><path
       id="path1023"
       d="M 0,0 1.824,1.531"
       style="fill:none;stroke:#000000;stroke-width:0.25;stroke-linecap:round;stroke-linejoin:round;stroke-miterlimit:10;stroke-dasharray:none;stroke-opacity:1"
       transform="matrix(1.3333333,0,0,-1.3333333,306.39328,537.17821)" /><path
       id="path1024"
       d="M 0,0 -1.094,1.302"
       style="fill:none;stroke:#000000;stroke-width:0.25;stroke-linecap:round;stroke-linejoin:round;stroke-miterlimit:10;stroke-dasharray:none;stroke-opacity:1"
       transform="matrix(1.3333333,0,0,-1.3333333,309.55408,536.00435)" /></g></svg>
